<?xml version="1.0" encoding="UTF-8"?>
<!-- Generator: Adobe Illustrator 21.1.0, SVG Export Plug-In . SVG Version: 6.00 Build 0)  -->
<svg version="1.1" id="Layer_1" xmlns="http://www.w3.org/2000/svg" xmlns:xlink="http://www.w3.org/1999/xlink" x="0px" y="0px" viewBox="0 0 185.2 28" style="enable-background:new 0 0 185.2 28;" xml:space="preserve">
<style type="text/css">
	.st0{fill:#04324D;}
	.st1{fill:#208CCC;}
	.st2{fill:#1368B3;}
</style>
<path class="st0" d="M41.8,26.8c2.6,0,4.8-2.1,4.8-4.8V10.1c0,0,0,0,0,0V9.6c0-0.3-0.2-0.5-0.5-0.5l-1,0c-0.3,0-0.5,0.2-0.5,0.5v1  c0,0,0,0,0,0V22c0,1.5-1.2,2.8-2.8,2.8h-7c-1.5,0-2.8-1.2-2.8-2.8V10.6c0,0,0,0,0,0v-1c0-0.3-0.2-0.5-0.5-0.5l-1,0  c-0.3,0-0.5,0.2-0.5,0.5v0.5c0,0,0,0,0,0V22c0,2.6,2.1,4.8,4.8,4.8H41.8z"/>
<path class="st1" d="M161.2,27c2.6,0,4.8-2.1,4.8-4.8V10.3c0,0,0,0,0,0V9.8c0-0.3-0.2-0.5-0.5-0.5l-1,0c-0.3,0-0.5,0.2-0.5,0.5v1  c0,0,0,0,0,0v11.4c0,1.5-1.2,2.8-2.8,2.8h-7c-1.5,0-2.8-1.2-2.8-2.8V10.8c0,0,0,0,0,0v-1c0-0.3-0.2-0.5-0.5-0.5l-1,0  c-0.3,0-0.5,0.2-0.5,0.5v0.5c0,0,0,0,0,0v11.9c0,2.6,2.1,4.8,4.8,4.8H161.2z"/>
<path class="st0" d="M68.1,9.2h-1c-0.3,0-0.5,0.2-0.5,0.5v0.5c0,0,0,0.1,0,0.1v6v5.8v2.3V26l0,0l0,0v0.5c0,0.3,0.2,0.5,0.5,0.5h1  c0.3,0,0.5-0.2,0.5-0.5v-1c0,0,0,0,0,0l0,0v-3.3v-5.8v-5.5l0,0c0,0,0,0,0,0v-1C68.6,9.5,68.4,9.2,68.1,9.2z"/>
<path class="st0" d="M60.1,9.4L60.1,9.4L60.1,9.4l-7.1,0c-1,0-1.9,0.3-2.6,0.8c0,0,0,0,0,0c-0.1-0.1-0.1-0.1-0.1-0.2l0,0l0,0l0-0.5  c0-0.3-0.2-0.5-0.5-0.5h-1c-0.3,0-0.5,0.2-0.5,0.5v1c0,0,0,0,0,0l0,0V14c0,0,0,0.1,0,0.1h0v0V20v5.5l0,0c0,0,0,0,0,0v1  c0,0.3,0.2,0.5,0.5,0.5h1c0.3,0,0.5-0.2,0.5-0.5v-0.5c0,0,0,0,0-0.1l0-6l0-5.8c0-1.5,1.2-2.8,2.8-2.8h7.1c1.5,0,2.8,1.2,2.8,2.8  v11.4c0,0,0,0,0,0v1c0,0.3,0.2,0.5,0.5,0.5h1c0.3,0,0.5-0.2,0.5-0.5l0-0.5c0,0,0,0,0,0V14.1C64.9,11.5,62.7,9.4,60.1,9.4z"/>
<path class="st0" d="M116.1,9.5h-0.4l0,0c-0.1,0-0.1,0-0.1,0h-10.7c-1.8,0-3.4,1-4.2,2.5c0,0,0,0,0,0c-0.1,0.1-0.1,0.3-0.2,0.4  c0,0,0,0,0,0c-0.1,0.1-0.1,0.3-0.2,0.4c0,0,0,0,0,0c0,0.1-0.1,0.3-0.1,0.4l0,0c0,0.1-0.1,0.3-0.1,0.4c0,0,0,0,0,0.1  c0,0.1,0,0.3,0,0.4l0,0l0,8v0c0,0.1,0,0.3,0,0.4c0,0,0,0.1,0,0.1c0,0.1,0,0.3,0.1,0.4c0,0.1,0.1,0.3,0.1,0.4c0,0,0,0,0,0  c0,0.1,0.1,0.3,0.1,0.4c0,0,0,0,0,0c0.1,0.1,0.1,0.3,0.2,0.4c0,0,0,0,0,0c0.8,1.5,2.4,2.5,4.2,2.5h10.7c0,0,0,0,0.1,0l0,0h0.4  c0.3,0,0.5-0.2,0.5-0.5v-1c0-0.3-0.2-0.5-0.5-0.5h-1c0,0,0,0,0,0l0,0h-3.3h-2.3l-1.1,0c0,0,0,0-0.1,0l0,0h-3.2  c-1.5,0-2.8-1.2-2.8-2.8l0-8c0-1.4,1.1-2.6,2.5-2.8v0h0.3h0.3h3l0,0c0,0,0,0,0,0h0.5l0,0c0,0,0,0,0.1,0h2.9h2.3h1.6c0,0,0,0,0,0l0,0  h0.5c0.3,0,0.5-0.2,0.5-0.5v-1C116.5,9.7,116.3,9.5,116.1,9.5z"/>
<path class="st1" d="M147.9,25h-0.3v0h-0.1c0,0,0,0,0,0l0,0h-3.1c0,0,0,0,0,0h-0.3c-1.5,0-2.8-1.2-2.8-2.8v-3l0,0c0,0,0,0,0,0v-1  c0,0,0,0,0,0l0,0v-3.3V9V2.2l0,0c0,0,0,0,0,0v-1c0-0.3-0.2-0.5-0.5-0.5h-0.4l0,0c-0.1,0-0.1,0-0.1,0c0,0-0.1,0-0.1,0l0,0h-0.4  c-0.3,0-0.5,0.2-0.5,0.5v0.5c0,0,0,0.1,0,0.1v4.6v0.8v15.2c0,2.6,2.1,4.8,4.8,4.8h0.6c0,0,0,0,0,0h1.7h0.9c0,0,0,0,0,0l0,0h0.5  c0.3,0,0.5-0.2,0.5-0.5v-1C148.3,25.2,148.1,25,147.9,25z"/>
<path class="st2" d="M127,25C127,25,127,25,127,25"/>
<path class="st0" d="M96.6,14.4c0,1.5-1.2,2.8-2.8,2.8h-9.6c-0.1,0-0.2,0-0.2-0.1c-0.1-0.1-0.1-0.1-0.1-0.2v-2.7  c0-1.5,1.2-2.8,2.8-2.8h7.1c1.5,0,2.8,1.2,2.8,2.8V14.4z M98.6,14.4l0-0.2c0-2.6-2.1-4.8-4.8-4.8h-7.1c-2.6,0-4.8,2.1-4.8,4.8v8.1  c0,2.6,2.1,4.8,4.8,4.8h7c0,0,0.1,0,0.1,0h0.6H96c0,0,0,0,0.1,0h0.5c0.3,0,0.5-0.2,0.5-0.5v-1c0-0.3-0.2-0.5-0.5-0.5h-1  c0,0,0,0-0.1,0h-2c0,0-0.1,0-0.1,0l-6.6,0c-1.5,0-2.8-1.2-2.8-2.8v-2.8c0-0.1,0-0.2,0.1-0.2c0.1-0.1,0.1-0.1,0.2-0.1h9.6  C96.4,19.1,98.6,17,98.6,14.4z"/>
<path class="st1" d="M182.9,14.4c0,1.5-1.2,2.8-2.8,2.8h-9.6c-0.1,0-0.2,0-0.2-0.1c-0.1-0.1-0.1-0.1-0.1-0.2v-2.7  c0-1.5,1.2-2.8,2.8-2.8h7.1c1.5,0,2.8,1.2,2.8,2.8V14.4z M184.9,14.4l0-0.2c0-2.6-2.1-4.8-4.8-4.8H173c-2.6,0-4.8,2.1-4.8,4.8v8.1  c0,2.6,2.1,4.8,4.8,4.8h7c0,0,0.1,0,0.1,0h0.6h1.6c0,0,0,0,0.1,0h0.5c0.3,0,0.5-0.2,0.5-0.5v-1c0-0.3-0.2-0.5-0.5-0.5h-1  c0,0,0,0-0.1,0h-2c0,0-0.1,0-0.1,0l-6.6,0c-1.5,0-2.8-1.2-2.8-2.8v-2.8c0-0.1,0-0.2,0.1-0.2c0.1-0.1,0.1-0.1,0.2-0.1h9.6  C182.7,19.1,184.9,17,184.9,14.4z"/>
<path class="st0" d="M80.2,25h-0.3l-1.3,0c0,0,0,0,0,0l0,0h-3c0,0,0,0,0,0h-0.3c-1.5,0-2.8-1.2-2.8-2.8v-3l0,0c0,0,0,0,0,0v-1  c0,0,0,0,0,0l0,0v-3.3v-3.5c0-0.1,0-0.2,0.1-0.2c0.1-0.1,0.1-0.1,0.2-0.1h2.1h1.6c0,0,0,0,0,0l0,0H77c0.3,0,0.5-0.2,0.5-0.5v-1  C77.5,9.2,77.3,9,77,9h-1c0,0,0,0,0,0l0,0h-3.2c-0.1,0-0.2,0-0.2-0.1c-0.1-0.1-0.1-0.1-0.1-0.2V2.2l0,1.5c0,0,0,0,0,0V1.1  c0-0.3-0.2-0.5-0.5-0.5h-0.4l0,0c-0.1,0-0.1,0-0.1,0c0,0-0.1,0-0.1,0l0,0l-0.4,0c-0.3,0-0.5,0.2-0.5,0.5v2c0,0,0,0.1,0,0.1v3.1v0.8  v15.2c0,2.6,2.1,4.8,4.8,4.8h0.6c0,0,0,0,0,0h1.7h-2.1c0,0,0,0,0,0l0,0h4.7c0.3,0,0.5-0.2,0.5-0.5v-1C80.7,25.2,80.5,25,80.2,25z"/>
<path class="st0" d="M72.4,8.8V1c0-0.3-0.2-0.5-0.5-0.5H70c-0.3,0-0.5,0.2-0.5,0.5v5.5v0.9l1.2,1.4L72.4,8.8z"/>
<path class="st1" d="M135.9,22.3c0,1.5-1.2,2.8-2.8,2.8h-9.9c-1.5,0-2.8-1.2-2.8-2.8V11.9l0.5,0.3c0.7,0.4,1.5,0.6,2.3,0.6h2.5  l1.2,0l6.2,0c1.5,0,2.8,1.2,2.8,2.8V22.3z M133.1,10.7h-6.2l-1.2,0h-2.5c-1.5,0-2.8-1.2-2.8-2.8v-7l-0.1-0.1  c-0.1-0.2-0.2-0.3-0.4-0.3h-1c-0.2,0-0.3,0.1-0.4,0.3l0,0.1c0,0,0,0,0,0.1l0,18.5l0,0l0,0.5c0,0,0,0,0,0.1l0,0v2.1  c0,2.6,2.1,4.8,4.8,4.8h9.9c2.6,0,4.8-2.1,4.8-4.8v-6.9C137.9,12.8,135.7,10.7,133.1,10.7z"/>
<path class="st1" d="M120.5,8.8V1c0-0.3-0.2-0.5-0.5-0.5h-1.9c-0.3,0-0.5,0.2-0.5,0.5v5.5v0.9l1.2,1.4L120.5,8.8z"/>
<path class="st1" d="M141.3,8.8V1c0-0.3-0.2-0.5-0.5-0.5h-1.9c-0.3,0-0.5,0.2-0.5,0.5v5.5v0.9l1.2,1.4L141.3,8.8z"/>
<path class="st1" d="M16.1,12.6l-2.4,0c-0.3,0-0.5-0.2-0.5-0.5l0-2.4c0-0.3,0.2-0.5,0.5-0.5l2.4,0c0.3,0,0.5,0.2,0.5,0.5l0,2.3  C16.6,12.4,16.4,12.6,16.1,12.6z M6.4,6.1c-4.3,2.3-6.5,6.9-5.9,11.5l7.4,9c2.8,1,6,0.8,8.9-0.7c5.5-2.9,7.6-9.7,4.7-15.1  C18.7,5.3,11.9,3.2,6.4,6.1z"/>
<path class="st1" d="M25.5,4.2c0-0.3-0.2-0.5-0.5-0.5l-2.4,0c-0.3,0-0.5,0.2-0.5,0.5l0,2.4c0,0.3,0.2,0.5,0.5,0.5l2.4,0  c0.3,0,0.5-0.2,0.5-0.5L25.5,4.2z"/>
</svg>